<svg width="33" height="32" viewBox="0 0 33 32" fill="none" xmlns="http://www.w3.org/2000/svg">
<g clip-path="url(#clip0_26_4588)">
<path d="M16.1549 0.2192C25.2179 0.1532 32.5596 7.3552 32.5596 16.1409V30.32C32.5596 31.127 31.8847 31.7813 31.0522 31.7813H16.4251C7.3618 31.7813 -0.0677109 24.6644 0.000400543 15.879C0.067173 7.25926 7.26285 0.28395 16.1549 0.2192Z" fill="#E2C700"/>
<path d="M2.69261 7.30569C5.44002 18.0384 15.3207 25.9841 27.0893 25.9841C28.968 25.9841 30.7984 25.7812 32.5596 25.3973V30.3201C32.5596 31.1271 31.8847 31.7813 31.0522 31.7813H16.4251C7.3618 31.7813 -0.0677109 24.6645 0.000400543 15.8791C0.0249443 12.7119 1.0128 9.76757 2.69261 7.30569Z" fill="#F7E353"/>
</g>
<defs>
<clipPath id="clip0_26_4588">
<rect width="32.5596" height="32" fill="white" transform="matrix(-1 0 0 1 32.5596 0)"/>
</clipPath>
</defs>
</svg>
